STARTFONT 2.1
COMMENT Copyright (C) 2022 by Andrew G. Crowell. Creative Commons Attribution 4.0 International License (CC BY 4.0).
COMMENT om_large_vshadow_outline.bdf
FONT -eggboycolor-omelette_large_vshadow_outline-medium-r-normal--16-100-72-72-m-90-ISO8859-1
SIZE 16 72 72
FONTBOUNDINGBOX 16 16 0 -2
STARTPROPERTIES 13
FONT_ASCENT 14 
FONT_DESCENT 2
PIXEL_SIZE 16
POINT_SIZE 100
RESOLUTION_X 72
RESOLUTION_Y 72
SPACING "C"
DEFAULT_CHAR 32
AVERAGE_WIDTH 90
CHARSET_REGISTRY "ISO8859"
CHARSET_ENCODING "1"
FOUNDRY "eggboycolor"
COPYRIGHT "Copyright (C) 2022 by Andrew G. Crowell. Creative Commons Attribution 4.0 International License (CC BY 4.0)."
ENDPROPERTIES
CHARS 96
STARTCHAR char32
ENCODING 32
SWIDTH 1600 0
DWIDTH 16 0
BBX 16 16 0 -2
BITMAP
0000
0000
0000
0000
0000
0000
0000
0000
0000
0000
0000
0000
0000
0000
0000
0000
ENDCHAR
STARTCHAR char33
ENCODING 33
SWIDTH 1600 0
DWIDTH 16 0
BBX 16 16 0 -2
BITMAP
0000
0000
0000
0000
0000
0008
0010
0020
0000
0040
0180
0000
0000
0000
0180
0000
ENDCHAR
STARTCHAR char34
ENCODING 34
SWIDTH 1600 0
DWIDTH 16 0
BBX 16 16 0 -2
BITMAP
0000
0000
0000
0000
0000
0A50
0420
0000
0000
0000
0000
0000
0000
0000
0000
0000
ENDCHAR
STARTCHAR char35
ENCODING 35
SWIDTH 1600 0
DWIDTH 16 0
BBX 16 16 0 -2
BITMAP
0000
0000
0000
0000
0088
0000
0000
199C
0000
0000
3338
0000
0440
0000
1980
0000
ENDCHAR
STARTCHAR char36
ENCODING 36
SWIDTH 1600 0
DWIDTH 16 0
BBX 16 16 0 -2
BITMAP
0000
0000
0000
0000
0278
0400
0000
1000
0E40
0020
0000
0008
1E70
0000
0180
0000
ENDCHAR
STARTCHAR char37
ENCODING 37
SWIDTH 1600 0
DWIDTH 16 0
BBX 16 16 0 -2
BITMAP
0000
0000
1800
0000
0008
4210
3C20
0040
0080
0100
0230
0400
0800
1084
2078
0000
ENDCHAR
STARTCHAR char38
ENCODING 38
SWIDTH 1600 0
DWIDTH 16 0
BBX 16 16 0 -2
BITMAP
0000
0000
0100
0280
0000
0000
0820
0440
0004
0308
0480
0040
0010
1028
0FC4
0000
ENDCHAR
STARTCHAR char39
ENCODING 39
SWIDTH 1600 0
DWIDTH 16 0
BBX 16 16 0 -2
BITMAP
0000
0000
0000
0000
0200
0080
0300
0000
0000
0000
0000
0000
0000
0000
0000
0000
ENDCHAR
STARTCHAR char40
ENCODING 40
SWIDTH 1600 0
DWIDTH 16 0
BBX 16 16 0 -2
BITMAP
0000
0000
0020
0040
0000
0000
0000
0000
0000
0000
0000
0200
0000
0100
00E0
0000
ENDCHAR
STARTCHAR char41
ENCODING 41
SWIDTH 1600 0
DWIDTH 16 0
BBX 16 16 0 -2
BITMAP
0000
0000
0400
0200
0000
0000
0000
0000
0000
0000
0000
0040
0000
0080
0700
0000
ENDCHAR
STARTCHAR char42
ENCODING 42
SWIDTH 1600 0
DWIDTH 16 0
BBX 16 16 0 -2
BITMAP
0000
0000
0000
0000
0000
0000
0000
0C30
0000
0240
0C30
0000
0180
0000
0000
0000
ENDCHAR
STARTCHAR char43
ENCODING 43
SWIDTH 1600 0
DWIDTH 16 0
BBX 16 16 0 -2
BITMAP
0000
0000
0000
0000
0000
0000
0000
0000
0000
0000
1E78
0000
0000
0000
0180
0000
ENDCHAR
STARTCHAR char44
ENCODING 44
SWIDTH 1600 0
DWIDTH 16 0
BBX 16 16 0 -2
BITMAP
0000
0000
0000
0000
0000
0000
0000
0000
0000
0000
0000
0000
0000
0200
0080
0300
ENDCHAR
STARTCHAR char45
ENCODING 45
SWIDTH 1600 0
DWIDTH 16 0
BBX 16 16 0 -2
BITMAP
0000
0000
0000
0000
0000
0000
0000
0000
0000
0000
0FF0
0000
0000
0000
0000
0000
ENDCHAR
STARTCHAR char46
ENCODING 46
SWIDTH 1600 0
DWIDTH 16 0
BBX 16 16 0 -2
BITMAP
0000
0000
0000
0000
0000
0000
0000
0000
0000
0000
0000
0000
0000
0000
0380
0000
ENDCHAR
STARTCHAR char47
ENCODING 47
SWIDTH 1600 0
DWIDTH 16 0
BBX 16 16 0 -2
BITMAP
0000
0000
0000
0000
0010
0000
0020
0000
0040
0000
0080
0000
0100
0000
0600
0000
ENDCHAR
STARTCHAR char48
ENCODING 48
SWIDTH 1600 0
DWIDTH 16 0
BBX 16 16 0 -2
BITMAP
0000
0000
0000
0180
0240
0000
0000
0040
0080
0100
0200
2004
0000
1818
07E0
0000
ENDCHAR
STARTCHAR char49
ENCODING 49
SWIDTH 1600 0
DWIDTH 16 0
BBX 16 16 0 -2
BITMAP
0000
0000
0000
0000
0C00
0000
0000
0000
0000
0000
0000
0000
0000
0000
0FF0
0000
ENDCHAR
STARTCHAR char50
ENCODING 50
SWIDTH 1600 0
DWIDTH 16 0
BBX 16 16 0 -2
BITMAP
0000
0000
0000
0380
0440
3800
0004
0008
0010
0020
0040
0080
0000
0000
3FFC
0000
ENDCHAR
STARTCHAR char51
ENCODING 51
SWIDTH 1600 0
DWIDTH 16 0
BBX 16 16 0 -2
BITMAP
0000
0000
0000
03C0
0420
3804
0008
0000
01C0
0020
0000
0000
2004
1008
0FF0
0000
ENDCHAR
STARTCHAR char52
ENCODING 52
SWIDTH 1600 0
DWIDTH 16 0
BBX 16 16 0 -2
BITMAP
0000
0000
0000
0200
0000
0400
0000
0000
7F86
0000
0000
0000
0000
0000
0078
0000
ENDCHAR
STARTCHAR char53
ENCODING 53
SWIDTH 1600 0
DWIDTH 16 0
BBX 16 16 0 -2
BITMAP
0000
0000
0000
03FC
0000
0000
0000
0000
3FC0
0020
0000
0000
0004
0008
3FF0
0000
ENDCHAR
STARTCHAR char54
ENCODING 54
SWIDTH 1600 0
DWIDTH 16 0
BBX 16 16 0 -2
BITMAP
0000
0000
0020
0040
0080
0000
0000
03C0
0420
0000
0000
0000
2004
1008
0FF0
0000
ENDCHAR
STARTCHAR char55
ENCODING 55
SWIDTH 1600 0
DWIDTH 16 0
BBX 16 16 0 -2
BITMAP
0000
0000
0000
3FC0
0000
0004
0008
0010
0020
0040
0000
0000
0000
0000
0780
0000
ENDCHAR
STARTCHAR char56
ENCODING 56
SWIDTH 1600 0
DWIDTH 16 0
BBX 16 16 0 -2
BITMAP
0000
0000
0000
03C0
0420
0000
2004
1008
03C0
0420
0000
0000
2004
1818
07E0
0000
ENDCHAR
STARTCHAR char57
ENCODING 57
SWIDTH 1600 0
DWIDTH 16 0
BBX 16 16 0 -2
BITMAP
0000
0000
0000
03C0
0420
0000
0000
2000
1004
0F08
0010
0020
0040
0080
0F00
0000
ENDCHAR
STARTCHAR char58
ENCODING 58
SWIDTH 1600 0
DWIDTH 16 0
BBX 16 16 0 -2
BITMAP
0000
0000
0000
0000
0000
0000
0000
0000
0380
0000
0000
0000
0000
0000
0380
0000
ENDCHAR
STARTCHAR char59
ENCODING 59
SWIDTH 1600 0
DWIDTH 16 0
BBX 16 16 0 -2
BITMAP
0000
0000
0000
0000
0000
0000
0000
0000
0380
0000
0000
0000
0000
0200
0080
0300
ENDCHAR
STARTCHAR char60
ENCODING 60
SWIDTH 1600 0
DWIDTH 16 0
BBX 16 16 0 -2
BITMAP
0000
0000
0000
0000
0000
0000
0000
0000
0030
00C0
0C00
0300
00C0
0030
0000
0000
ENDCHAR
STARTCHAR char61
ENCODING 61
SWIDTH 1600 0
DWIDTH 16 0
BBX 16 16 0 -2
BITMAP
0000
0000
0000
0000
0000
0000
0000
0000
1FF8
0000
0000
0000
0000
1FF8
0000
0000
ENDCHAR
STARTCHAR char62
ENCODING 62
SWIDTH 1600 0
DWIDTH 16 0
BBX 16 16 0 -2
BITMAP
0000
0000
0000
0000
0000
0000
0000
0000
0C00
0300
0030
00C0
0300
0C00
0000
0000
ENDCHAR
STARTCHAR char63
ENCODING 63
SWIDTH 1600 0
DWIDTH 16 0
BBX 16 16 0 -2
BITMAP
0000
0000
0000
01C0
0220
1C00
0004
0018
0060
0000
0180
0000
0000
0000
0180
0000
ENDCHAR
STARTCHAR char64
ENCODING 64
SWIDTH 1600 0
DWIDTH 16 0
BBX 16 16 0 -2
BITMAP
0000
0000
03C0
0430
0800
0188
1200
0000
0042
04A4
4318
2000
1820
07C0
0000
0000
ENDCHAR
STARTCHAR char65
ENCODING 65
SWIDTH 1600 0
DWIDTH 16 0
BBX 16 16 0 -2
BITMAP
0000
0000
0000
03C0
0000
0000
0000
0000
0000
03C0
0000
0000
0000
0000
3C3C
0000
ENDCHAR
STARTCHAR char66
ENCODING 66
SWIDTH 1600 0
DWIDTH 16 0
BBX 16 16 0 -2
BITMAP
0000
0000
0000
0380
0040
0000
0004
0008
0380
0040
0000
0000
0004
0008
3FF0
0000
ENDCHAR
STARTCHAR char67
ENCODING 67
SWIDTH 1600 0
DWIDTH 16 0
BBX 16 16 0 -2
BITMAP
0000
0000
0000
01C0
0220
001C
0000
0000
0000
0000
0000
2000
1004
0808
07F0
0000
ENDCHAR
STARTCHAR char68
ENCODING 68
SWIDTH 1600 0
DWIDTH 16 0
BBX 16 16 0 -2
BITMAP
0000
0000
0000
0380
0040
0000
0000
0000
0000
0000
0000
0004
0000
0018
3FE0
0000
ENDCHAR
STARTCHAR char69
ENCODING 69
SWIDTH 1600 0
DWIDTH 16 0
BBX 16 16 0 -2
BITMAP
0000
0000
0000
03FC
0000
0000
0000
0000
03FC
0000
0000
0000
0000
0000
3FFC
0000
ENDCHAR
STARTCHAR char70
ENCODING 70
SWIDTH 1600 0
DWIDTH 16 0
BBX 16 16 0 -2
BITMAP
0000
0000
0000
03FC
0000
0000
0000
0000
03FC
0000
0000
0000
0000
0000
3C00
0000
ENDCHAR
STARTCHAR char71
ENCODING 71
SWIDTH 1600 0
DWIDTH 16 0
BBX 16 16 0 -2
BITMAP
0000
0000
0000
03C0
0420
001C
0000
0000
0000
00E0
0000
0000
2004
1008
0FF0
0000
ENDCHAR
STARTCHAR char72
ENCODING 72
SWIDTH 1600 0
DWIDTH 16 0
BBX 16 16 0 -2
BITMAP
0000
0000
0000
0000
0000
0000
0000
0000
0000
03C0
0000
0000
0000
0000
3C3C
0000
ENDCHAR
STARTCHAR char73
ENCODING 73
SWIDTH 1600 0
DWIDTH 16 0
BBX 16 16 0 -2
BITMAP
0000
0000
0000
3C3C
0000
0000
0000
0000
0000
0000
0000
0000
0000
0000
3FFC
0000
ENDCHAR
STARTCHAR char74
ENCODING 74
SWIDTH 1600 0
DWIDTH 16 0
BBX 16 16 0 -2
BITMAP
0000
0000
0000
01C0
0000
0000
0000
0000
0000
0000
0000
0000
2004
1818
07E0
0000
ENDCHAR
STARTCHAR char75
ENCODING 75
SWIDTH 1600 0
DWIDTH 16 0
BBX 16 16 0 -2
BITMAP
0000
0000
0002
0004
0008
0010
0020
0040
0000
0000
0200
0100
0080
0040
3C3E
0000
ENDCHAR
STARTCHAR char76
ENCODING 76
SWIDTH 1600 0
DWIDTH 16 0
BBX 16 16 0 -2
BITMAP
0000
0000
0000
0000
0000
0000
0000
0000
0000
0000
0000
0000
0000
0000
3FFC
0000
ENDCHAR
STARTCHAR char77
ENCODING 77
SWIDTH 1600 0
DWIDTH 16 0
BBX 16 16 0 -2
BITMAP
0000
0000
0000
0000
0000
0000
0420
0240
0180
0000
0000
0000
0000
0000
781E
0000
ENDCHAR
STARTCHAR char78
ENCODING 78
SWIDTH 1600 0
DWIDTH 16 0
BBX 16 16 0 -2
BITMAP
0000
0000
0000
0000
0000
0000
0000
0000
0200
0100
0080
0040
0020
0010
3C0C
0000
ENDCHAR
STARTCHAR char79
ENCODING 79
SWIDTH 1600 0
DWIDTH 16 0
BBX 16 16 0 -2
BITMAP
0000
0000
0000
0180
0240
0000
0000
0000
0000
0000
2004
0000
1008
0C30
03C0
0000
ENDCHAR
STARTCHAR char80
ENCODING 80
SWIDTH 1600 0
DWIDTH 16 0
BBX 16 16 0 -2
BITMAP
0000
0000
0000
0380
0040
0000
0000
0004
0018
03E0
0000
0000
0000
0000
3C00
0000
ENDCHAR
STARTCHAR char81
ENCODING 81
SWIDTH 1600 0
DWIDTH 16 0
BBX 16 16 0 -2
BITMAP
0000
0000
0000
0180
0240
0000
0000
0000
0000
0000
2004
0080
1008
0C40
03A0
001C
ENDCHAR
STARTCHAR char82
ENCODING 82
SWIDTH 1600 0
DWIDTH 16 0
BBX 16 16 0 -2
BITMAP
0000
0000
0000
0380
0040
0000
0004
0008
0030
0200
0100
0080
0040
0020
3C1C
0000
ENDCHAR
STARTCHAR char83
ENCODING 83
SWIDTH 1600 0
DWIDTH 16 0
BBX 16 16 0 -2
BITMAP
0000
0000
0000
03C0
043C
0000
2000
1000
0FC0
0020
0000
0000
2004
1008
0FF0
0000
ENDCHAR
STARTCHAR char84
ENCODING 84
SWIDTH 1600 0
DWIDTH 16 0
BBX 16 16 0 -2
BITMAP
0000
0000
0000
3C3C
0000
0000
0000
0000
0000
0000
0000
0000
0000
0000
03C0
0000
ENDCHAR
STARTCHAR char85
ENCODING 85
SWIDTH 1600 0
DWIDTH 16 0
BBX 16 16 0 -2
BITMAP
0000
0000
0000
0000
0000
0000
0000
0000
0000
0000
0000
2004
0000
1818
07E0
0000
ENDCHAR
STARTCHAR char86
ENCODING 86
SWIDTH 1600 0
DWIDTH 16 0
BBX 16 16 0 -2
BITMAP
0000
0000
0000
0000
0000
0000
0000
0000
0000
2004
1008
0810
0420
0240
0180
0000
ENDCHAR
STARTCHAR char87
ENCODING 87
SWIDTH 1600 0
DWIDTH 16 0
BBX 16 16 0 -2
BITMAP
0000
0000
0000
0000
0000
0000
0000
0000
0000
0000
0180
0240
0420
0810
700E
0000
ENDCHAR
STARTCHAR char88
ENCODING 88
SWIDTH 1600 0
DWIDTH 16 0
BBX 16 16 0 -2
BITMAP
0000
0000
0000
0000
2004
1008
0810
0420
0000
0180
0240
0000
0000
0000
3C3C
0000
ENDCHAR
STARTCHAR char89
ENCODING 89
SWIDTH 1600 0
DWIDTH 16 0
BBX 16 16 0 -2
BITMAP
0000
0000
0000
0000
0000
0000
2004
1008
0810
0420
0000
0000
0000
0000
03C0
0000
ENDCHAR
STARTCHAR char90
ENCODING 90
SWIDTH 1600 0
DWIDTH 16 0
BBX 16 16 0 -2
BITMAP
0000
0000
0000
3F80
0004
0008
0010
0020
0040
0080
0100
0200
0000
0000
3FFC
0000
ENDCHAR
STARTCHAR char91
ENCODING 91
SWIDTH 1600 0
DWIDTH 16 0
BBX 16 16 0 -2
BITMAP
0000
0000
0000
00C0
0000
0000
0000
0000
0000
0000
0000
0000
0000
0000
07C0
0000
ENDCHAR
STARTCHAR char92
ENCODING 92
SWIDTH 1600 0
DWIDTH 16 0
BBX 16 16 0 -2
BITMAP
0000
0000
0000
0000
0400
0000
0200
0000
0100
0000
0080
0000
0040
0000
0030
0000
ENDCHAR
STARTCHAR char93
ENCODING 93
SWIDTH 1600 0
DWIDTH 16 0
BBX 16 16 0 -2
BITMAP
0000
0000
0000
0600
0000
0000
0000
0000
0000
0000
0000
0000
0000
0000
07C0
0000
ENDCHAR
STARTCHAR char94
ENCODING 94
SWIDTH 1600 0
DWIDTH 16 0
BBX 16 16 0 -2
BITMAP
0000
0000
0000
0000
0180
0240
0C30
0000
0000
0000
0000
0000
0000
0000
0000
0000
ENDCHAR
STARTCHAR char95
ENCODING 95
SWIDTH 1600 0
DWIDTH 16 0
BBX 16 16 0 -2
BITMAP
0000
0000
0000
0000
0000
0000
0000
0000
0000
0000
0000
0000
0000
0000
0FF8
0000
ENDCHAR
STARTCHAR char96
ENCODING 96
SWIDTH 1600 0
DWIDTH 16 0
BBX 16 16 0 -2
BITMAP
0000
0000
0000
0400
0200
01C0
0000
0000
0000
0000
0000
0000
0000
0000
0000
0000
ENDCHAR
STARTCHAR char97
ENCODING 97
SWIDTH 1600 0
DWIDTH 16 0
BBX 16 16 0 -2
BITMAP
0000
0000
0000
0000
0000
0000
0080
0140
0200
0000
0000
0000
2020
1040
0F9C
0000
ENDCHAR
STARTCHAR char98
ENCODING 98
SWIDTH 1600 0
DWIDTH 16 0
BBX 16 16 0 -2
BITMAP
0000
0000
0000
0000
0000
0000
0000
0180
0240
0000
0000
0000
0004
0008
3FF0
0000
ENDCHAR
STARTCHAR char99
ENCODING 99
SWIDTH 1600 0
DWIDTH 16 0
BBX 16 16 0 -2
BITMAP
0000
0000
0000
0000
0000
0000
01C0
0220
001C
0000
0000
2000
0004
1818
07E0
0000
ENDCHAR
STARTCHAR char100
ENCODING 100
SWIDTH 1600 0
DWIDTH 16 0
BBX 16 16 0 -2
BITMAP
0000
0000
0000
0000
0000
0000
0000
0180
0240
0000
0000
0000
2000
1000
0FFC
0000
ENDCHAR
STARTCHAR char101
ENCODING 101
SWIDTH 1600 0
DWIDTH 16 0
BBX 16 16 0 -2
BITMAP
0000
0000
0000
0000
0000
0000
0180
0240
0000
0000
03FC
2000
0000
1804
07F8
0000
ENDCHAR
STARTCHAR char102
ENCODING 102
SWIDTH 1600 0
DWIDTH 16 0
BBX 16 16 0 -2
BITMAP
0000
0000
0000
003C
0000
0000
0000
0000
1C38
0000
0000
0000
0000
0000
03C0
0000
ENDCHAR
STARTCHAR char103
ENCODING 103
SWIDTH 1600 0
DWIDTH 16 0
BBX 16 16 0 -2
BITMAP
0000
0000
0000
0000
0000
0000
01C0
0200
0000
2000
1000
0FC0
0000
0004
0008
1FF0
ENDCHAR
STARTCHAR char104
ENCODING 104
SWIDTH 1600 0
DWIDTH 16 0
BBX 16 16 0 -2
BITMAP
0000
0000
0000
0000
0000
0000
0000
0380
0040
0000
0000
0000
0000
0000
3C3C
0000
ENDCHAR
STARTCHAR char105
ENCODING 105
SWIDTH 1600 0
DWIDTH 16 0
BBX 16 16 0 -2
BITMAP
0000
0000
0000
03C0
0000
0000
0400
0000
0000
0000
0000
0000
0000
0000
03E0
0000
ENDCHAR
STARTCHAR char106
ENCODING 106
SWIDTH 1600 0
DWIDTH 16 0
BBX 16 16 0 -2
BITMAP
0000
0000
0000
0078
0000
0000
0000
0000
0000
0000
0000
0000
0000
2008
1010
0FE0
ENDCHAR
STARTCHAR char107
ENCODING 107
SWIDTH 1600 0
DWIDTH 16 0
BBX 16 16 0 -2
BITMAP
0000
0000
0000
0000
0000
0000
0000
0008
0010
0020
0000
0100
0080
0040
1E3C
0000
ENDCHAR
STARTCHAR char108
ENCODING 108
SWIDTH 1600 0
DWIDTH 16 0
BBX 16 16 0 -2
BITMAP
0000
0000
0000
0C00
0000
0000
0000
0000
0000
0000
0000
0000
0000
0000
03F0
0000
ENDCHAR
STARTCHAR char109
ENCODING 109
SWIDTH 1600 0
DWIDTH 16 0
BBX 16 16 0 -2
BITMAP
0000
0000
0000
0000
0000
0000
0000
0000
0420
0240
0180
0000
0000
0000
781E
0000
ENDCHAR
STARTCHAR char110
ENCODING 110
SWIDTH 1600 0
DWIDTH 16 0
BBX 16 16 0 -2
BITMAP
0000
0000
0000
0000
0000
0000
0000
0380
0040
0000
0000
0000
0000
0000
3C3C
0000
ENDCHAR
STARTCHAR char111
ENCODING 111
SWIDTH 1600 0
DWIDTH 16 0
BBX 16 16 0 -2
BITMAP
0000
0000
0000
0000
0000
0000
0180
0240
0000
0000
0000
2004
1008
0C30
03C0
0000
ENDCHAR
STARTCHAR char112
ENCODING 112
SWIDTH 1600 0
DWIDTH 16 0
BBX 16 16 0 -2
BITMAP
0000
0000
0000
0000
0000
0000
0380
0040
0020
0000
0004
0008
03F0
0000
0000
3C00
ENDCHAR
STARTCHAR char113
ENCODING 113
SWIDTH 1600 0
DWIDTH 16 0
BBX 16 16 0 -2
BITMAP
0000
0000
0000
0000
0000
0000
0380
0400
0800
0000
4000
2082
1F04
0008
0010
0060
ENDCHAR
STARTCHAR char114
ENCODING 114
SWIDTH 1600 0
DWIDTH 16 0
BBX 16 16 0 -2
BITMAP
0000
0000
0000
0000
0000
0000
0000
00C0
0120
021C
0000
0000
0000
0000
3C00
0000
ENDCHAR
STARTCHAR char115
ENCODING 115
SWIDTH 1600 0
DWIDTH 16 0
BBX 16 16 0 -2
BITMAP
0000
0000
0000
0000
0000
0000
03FC
0400
2000
1000
0FE0
0000
0004
2008
1FF0
0000
ENDCHAR
STARTCHAR char116
ENCODING 116
SWIDTH 1600 0
DWIDTH 16 0
BBX 16 16 0 -2
BITMAP
0000
0000
0000
0000
0000
0000
0000
1C38
0000
0000
0000
0000
0200
0100
00FC
0000
ENDCHAR
STARTCHAR char117
ENCODING 117
SWIDTH 1600 0
DWIDTH 16 0
BBX 16 16 0 -2
BITMAP
0000
0000
0000
0000
0000
0000
0000
0000
0000
0000
0000
0000
2040
1080
0F3C
0000
ENDCHAR
STARTCHAR char118
ENCODING 118
SWIDTH 1600 0
DWIDTH 16 0
BBX 16 16 0 -2
BITMAP
0000
0000
0000
0000
0000
0000
0000
0000
0000
2004
1008
0810
0420
0240
0180
0000
ENDCHAR
STARTCHAR char119
ENCODING 119
SWIDTH 1600 0
DWIDTH 16 0
BBX 16 16 0 -2
BITMAP
0000
0000
0000
0000
0000
0000
0000
0000
0000
0000
0000
0000
4182
2244
1C38
0000
ENDCHAR
STARTCHAR char120
ENCODING 120
SWIDTH 1600 0
DWIDTH 16 0
BBX 16 16 0 -2
BITMAP
0000
0000
0000
0000
0000
0000
2004
1008
0810
0000
0000
0180
0240
0420
381C
0000
ENDCHAR
STARTCHAR char121
ENCODING 121
SWIDTH 1600 0
DWIDTH 16 0
BBX 16 16 0 -2
BITMAP
0000
0000
0000
0000
0000
0000
0000
0000
0000
2000
1000
0FC0
0004
0008
0010
3FE0
ENDCHAR
STARTCHAR char122
ENCODING 122
SWIDTH 1600 0
DWIDTH 16 0
BBX 16 16 0 -2
BITMAP
0000
0000
0000
0000
0000
0000
3F04
0008
0010
0020
0040
0080
0000
0000
3FFC
0000
ENDCHAR
STARTCHAR char123
ENCODING 123
SWIDTH 1600 0
DWIDTH 16 0
BBX 16 16 0 -2
BITMAP
0000
0000
0020
0040
0000
0080
0100
0200
2000
1800
0400
0000
0000
0200
01E0
0000
ENDCHAR
STARTCHAR char124
ENCODING 124
SWIDTH 1600 0
DWIDTH 16 0
BBX 16 16 0 -2
BITMAP
0000
0000
0000
0000
0000
0000
0000
0000
0000
0000
0000
0000
0000
0000
0180
0000
ENDCHAR
STARTCHAR char125
ENCODING 125
SWIDTH 1600 0
DWIDTH 16 0
BBX 16 16 0 -2
BITMAP
0000
0000
0400
0200
0000
0100
0080
0040
0004
0018
0020
0000
0000
0040
0780
0000
ENDCHAR
STARTCHAR char126
ENCODING 126
SWIDTH 1600 0
DWIDTH 16 0
BBX 16 16 0 -2
BITMAP
0000
0000
0000
0000
0000
0000
0000
0000
0E00
1104
2088
0070
0000
0000
0000
0000
ENDCHAR
STARTCHAR char127
ENCODING 127
SWIDTH 1600 0
DWIDTH 16 0
BBX 16 16 0 -2
BITMAP
0000
0000
0000
0000
0000
0000
0000
0000
0000
0000
0000
0000
0000
318C
0000
0000
ENDCHAR
ENDFONT
